<svg width="895" height="199" viewBox="0 0 895 199" fill="none" xmlns="http://www.w3.org/2000/svg">
<path d="M15.96 190.228C13.3253 190.228 10.9313 189.645 8.778 188.48C6.65 187.289 4.978 185.668 3.762 183.616C2.57133 181.564 1.976 179.259 1.976 176.7C1.976 174.141 2.57133 171.836 3.762 169.784C4.978 167.732 6.65 166.123 8.778 164.958C10.9313 163.767 13.3253 163.172 15.96 163.172C18.5947 163.172 20.9633 163.755 23.066 164.92C25.194 166.085 26.866 167.707 28.082 169.784C29.298 171.836 29.906 174.141 29.906 176.7C29.906 179.259 29.298 181.577 28.082 183.654C26.866 185.706 25.194 187.315 23.066 188.48C20.9633 189.645 18.5947 190.228 15.96 190.228ZM15.96 187.72C18.0627 187.72 19.9627 187.251 21.66 186.314C23.3573 185.351 24.6873 184.034 25.65 182.362C26.6127 180.665 27.094 178.777 27.094 176.7C27.094 174.623 26.6127 172.748 25.65 171.076C24.6873 169.379 23.3573 168.061 21.66 167.124C19.9627 166.161 18.0627 165.68 15.96 165.68C13.8573 165.68 11.9447 166.161 10.222 167.124C8.52467 168.061 7.182 169.379 6.194 171.076C5.23133 172.748 4.75 174.623 4.75 176.7C4.75 178.777 5.23133 180.665 6.194 182.362C7.182 184.034 8.52467 185.351 10.222 186.314C11.9447 187.251 13.8573 187.72 15.96 187.72ZM49.0043 190.228C47.4843 190.228 46.0783 189.899 44.7863 189.24C43.4943 188.581 42.4429 187.644 41.6323 186.428L43.3043 184.528C44.7736 186.707 46.6863 187.796 49.0423 187.796C52.3356 187.796 53.9823 185.845 53.9823 181.944V165.832H44.2543V163.4H56.7563V181.83C56.7563 184.617 56.0976 186.719 54.7803 188.138C53.4883 189.531 51.5629 190.228 49.0043 190.228ZM84.0014 187.568V190H65.1914V163.4H83.4314V165.832H68.0034V175.294H81.7594V177.688H68.0034V187.568H84.0014ZM90.6113 163.4H93.4233V190H90.6113V163.4ZM107.246 165.832H97.8981V163.4H119.406V165.832H110.058V190H107.246V165.832ZM135.155 190.228C132.521 190.228 130.127 189.645 127.973 188.48C125.845 187.289 124.173 185.668 122.957 183.616C121.767 181.564 121.171 179.259 121.171 176.7C121.171 174.141 121.767 171.836 122.957 169.784C124.173 167.732 125.845 166.123 127.973 164.958C130.127 163.767 132.521 163.172 135.155 163.172C137.79 163.172 140.159 163.755 142.261 164.92C144.389 166.085 146.061 167.707 147.277 169.784C148.493 171.836 149.101 174.141 149.101 176.7C149.101 179.259 148.493 181.577 147.277 183.654C146.061 185.706 144.389 187.315 142.261 188.48C140.159 189.645 137.79 190.228 135.155 190.228ZM135.155 187.72C137.258 187.72 139.158 187.251 140.855 186.314C142.553 185.351 143.883 184.034 144.845 182.362C145.808 180.665 146.289 178.777 146.289 176.7C146.289 174.623 145.808 172.748 144.845 171.076C143.883 169.379 142.553 168.061 140.855 167.124C139.158 166.161 137.258 165.68 135.155 165.68C133.053 165.68 131.14 166.161 129.417 167.124C127.72 168.061 126.377 169.379 125.389 171.076C124.427 172.748 123.945 174.623 123.945 176.7C123.945 178.777 124.427 180.665 125.389 182.362C126.377 184.034 127.72 185.351 129.417 186.314C131.14 187.251 133.053 187.72 135.155 187.72ZM192.976 163.4V190H190.278V168.72L179.828 186.618H178.498L168.048 168.834V190H165.35V163.4H167.668L179.22 183.122L190.658 163.4H192.976ZM218.325 182.894H203.505L200.313 190H197.387L209.547 163.4H212.321L224.481 190H221.517L218.325 182.894ZM217.299 180.614L210.915 166.326L204.531 180.614H217.299ZM228.881 163.4H231.693V190H228.881V163.4ZM247.682 190.228C245.706 190.228 243.806 189.911 241.982 189.278C240.183 188.645 238.79 187.809 237.802 186.77L238.904 184.604C239.866 185.567 241.146 186.352 242.742 186.96C244.338 187.543 245.984 187.834 247.682 187.834C250.063 187.834 251.849 187.403 253.04 186.542C254.23 185.655 254.826 184.515 254.826 183.122C254.826 182.058 254.496 181.209 253.838 180.576C253.204 179.943 252.419 179.461 251.482 179.132C250.544 178.777 249.24 178.397 247.568 177.992C245.566 177.485 243.97 177.004 242.78 176.548C241.589 176.067 240.563 175.345 239.702 174.382C238.866 173.419 238.448 172.115 238.448 170.468C238.448 169.125 238.802 167.909 239.512 166.82C240.221 165.705 241.31 164.819 242.78 164.16C244.249 163.501 246.073 163.172 248.252 163.172C249.772 163.172 251.254 163.387 252.698 163.818C254.167 164.223 255.434 164.793 256.498 165.528L255.548 167.77C254.433 167.035 253.242 166.491 251.976 166.136C250.709 165.756 249.468 165.566 248.252 165.566C245.921 165.566 244.16 166.022 242.97 166.934C241.804 167.821 241.222 168.973 241.222 170.392C241.222 171.456 241.538 172.317 242.172 172.976C242.83 173.609 243.641 174.103 244.604 174.458C245.592 174.787 246.909 175.155 248.556 175.56C250.506 176.041 252.077 176.523 253.268 177.004C254.484 177.46 255.51 178.169 256.346 179.132C257.182 180.069 257.6 181.349 257.6 182.97C257.6 184.313 257.232 185.541 256.498 186.656C255.788 187.745 254.686 188.619 253.192 189.278C251.697 189.911 249.86 190.228 247.682 190.228ZM273.672 163.4H276.484V190H273.672V163.4ZM304.329 187.568V190H282.517V188.062L300.149 165.832H282.783V163.4H303.873V165.338L286.279 187.568H304.329ZM309.891 163.4H312.703V190H309.891V163.4ZM331.303 163.4H342.133C344.945 163.4 347.427 163.97 349.581 165.11C351.734 166.225 353.406 167.795 354.597 169.822C355.787 171.823 356.383 174.116 356.383 176.7C356.383 179.284 355.787 181.589 354.597 183.616C353.406 185.617 351.734 187.188 349.581 188.328C347.427 189.443 344.945 190 342.133 190H331.303V163.4ZM341.981 187.568C344.311 187.568 346.351 187.112 348.099 186.2C349.847 185.263 351.202 183.983 352.165 182.362C353.127 180.715 353.609 178.828 353.609 176.7C353.609 174.572 353.127 172.697 352.165 171.076C351.202 169.429 349.847 168.15 348.099 167.238C346.351 166.301 344.311 165.832 341.981 165.832H334.115V187.568H341.981ZM381.507 187.568V190H362.697V163.4H380.937V165.832H365.509V175.294H379.265V177.688H365.509V187.568H381.507ZM409.614 190.228C406.98 190.228 404.598 189.645 402.47 188.48C400.368 187.315 398.708 185.706 397.492 183.654C396.302 181.577 395.706 179.259 395.706 176.7C395.706 174.141 396.302 171.836 397.492 169.784C398.708 167.707 400.38 166.085 402.508 164.92C404.636 163.755 407.018 163.172 409.652 163.172C411.628 163.172 413.452 163.501 415.124 164.16C416.796 164.819 418.215 165.781 419.38 167.048L417.594 168.834C415.517 166.731 412.895 165.68 409.728 165.68C407.626 165.68 405.713 166.161 403.99 167.124C402.268 168.087 400.912 169.404 399.924 171.076C398.962 172.748 398.48 174.623 398.48 176.7C398.48 178.777 398.962 180.652 399.924 182.324C400.912 183.996 402.268 185.313 403.99 186.276C405.713 187.239 407.626 187.72 409.728 187.72C412.92 187.72 415.542 186.656 417.594 184.528L419.38 186.314C418.215 187.581 416.784 188.556 415.086 189.24C413.414 189.899 411.59 190.228 409.614 190.228ZM443.539 190L437.459 181.45C436.775 181.526 436.066 181.564 435.331 181.564H428.187V190H425.375V163.4H435.331C438.726 163.4 441.386 164.211 443.311 165.832C445.236 167.453 446.199 169.683 446.199 172.52C446.199 174.597 445.667 176.358 444.603 177.802C443.564 179.221 442.07 180.247 440.119 180.88L446.617 190H443.539ZM435.255 179.17C437.89 179.17 439.904 178.587 441.297 177.422C442.69 176.257 443.387 174.623 443.387 172.52C443.387 170.367 442.69 168.72 441.297 167.58C439.904 166.415 437.89 165.832 435.255 165.832H428.187V179.17H435.255ZM452.836 163.4H455.648V190H452.836V163.4ZM480.985 182.894H466.165L462.973 190H460.047L472.207 163.4H474.981L487.141 190H484.177L480.985 182.894ZM479.959 180.614L473.575 166.326L467.191 180.614H479.959ZM509.705 190L503.625 181.45C502.941 181.526 502.232 181.564 501.497 181.564H494.353V190H491.541V163.4H501.497C504.892 163.4 507.552 164.211 509.477 165.832C511.402 167.453 512.365 169.683 512.365 172.52C512.365 174.597 511.833 176.358 510.769 177.802C509.73 179.221 508.236 180.247 506.285 180.88L512.783 190H509.705ZM501.421 179.17C504.056 179.17 506.07 178.587 507.463 177.422C508.856 176.257 509.553 174.623 509.553 172.52C509.553 170.367 508.856 168.72 507.463 167.58C506.07 166.415 504.056 165.832 501.421 165.832H494.353V179.17H501.421ZM539.663 190.228C536.218 190.228 533.533 189.24 531.607 187.264C529.682 185.288 528.719 182.413 528.719 178.638V163.4H531.531V178.524C531.531 181.615 532.228 183.92 533.621 185.44C535.015 186.96 537.029 187.72 539.663 187.72C542.323 187.72 544.35 186.96 545.743 185.44C547.137 183.92 547.833 181.615 547.833 178.524V163.4H550.569V178.638C550.569 182.413 549.607 185.288 547.681 187.264C545.781 189.24 543.109 190.228 539.663 190.228ZM586.669 163.4V190H583.971V168.72L573.521 186.618H572.191L561.741 168.834V190H559.043V163.4H561.361L572.913 183.122L584.351 163.4H586.669ZM612.018 182.894H597.198L594.006 190H591.08L603.24 163.4H606.014L618.174 190H615.21L612.018 182.894ZM610.992 180.614L604.608 166.326L598.224 180.614H610.992ZM644.072 190.228C641.437 190.228 639.056 189.645 636.928 188.48C634.825 187.315 633.166 185.706 631.95 183.654C630.759 181.577 630.164 179.259 630.164 176.7C630.164 174.141 630.759 171.836 631.95 169.784C633.166 167.707 634.838 166.085 636.966 164.92C639.094 163.755 641.475 163.172 644.11 163.172C646.086 163.172 647.91 163.501 649.582 164.16C651.254 164.819 652.672 165.781 653.838 167.048L652.052 168.834C649.974 166.731 647.352 165.68 644.186 165.68C642.083 165.68 640.17 166.161 638.448 167.124C636.725 168.087 635.37 169.404 634.382 171.076C633.419 172.748 632.938 174.623 632.938 176.7C632.938 178.777 633.419 180.652 634.382 182.324C635.37 183.996 636.725 185.313 638.448 186.276C640.17 187.239 642.083 187.72 644.186 187.72C647.378 187.72 650 186.656 652.052 184.528L653.838 186.314C652.672 187.581 651.241 188.556 649.544 189.24C647.872 189.899 646.048 190.228 644.072 190.228ZM670.903 190.228C668.269 190.228 665.875 189.645 663.721 188.48C661.593 187.289 659.921 185.668 658.705 183.616C657.515 181.564 656.919 179.259 656.919 176.7C656.919 174.141 657.515 171.836 658.705 169.784C659.921 167.732 661.593 166.123 663.721 164.958C665.875 163.767 668.269 163.172 670.903 163.172C673.538 163.172 675.907 163.755 678.009 164.92C680.137 166.085 681.809 167.707 683.025 169.784C684.241 171.836 684.849 174.141 684.849 176.7C684.849 179.259 684.241 181.577 683.025 183.654C681.809 185.706 680.137 187.315 678.009 188.48C675.907 189.645 673.538 190.228 670.903 190.228ZM670.903 187.72C673.006 187.72 674.906 187.251 676.603 186.314C678.301 185.351 679.631 184.034 680.593 182.362C681.556 180.665 682.037 178.777 682.037 176.7C682.037 174.623 681.556 172.748 680.593 171.076C679.631 169.379 678.301 168.061 676.603 167.124C674.906 166.161 673.006 165.68 670.903 165.68C668.801 165.68 666.888 166.161 665.165 167.124C663.468 168.061 662.125 169.379 661.137 171.076C660.175 172.748 659.693 174.623 659.693 176.7C659.693 178.777 660.175 180.665 661.137 182.362C662.125 184.034 663.468 185.351 665.165 186.314C666.888 187.251 668.801 187.72 670.903 187.72ZM718.778 163.4V190H716.08V168.72L705.63 186.618H704.3L693.85 168.834V190H691.152V163.4H693.47L705.022 183.122L716.46 163.4H718.778ZM737.401 163.4C740.796 163.4 743.456 164.211 745.381 165.832C747.307 167.453 748.269 169.683 748.269 172.52C748.269 175.357 747.307 177.587 745.381 179.208C743.456 180.804 740.796 181.602 737.401 181.602H730.257V190H727.445V163.4H737.401ZM737.325 179.132C739.96 179.132 741.974 178.562 743.367 177.422C744.761 176.257 745.457 174.623 745.457 172.52C745.457 170.367 744.761 168.72 743.367 167.58C741.974 166.415 739.96 165.832 737.325 165.832H730.257V179.132H737.325ZM773.16 187.568V190H754.35V163.4H772.59V165.832H757.162V175.294H770.918V177.688H757.162V187.568H773.16ZM784.938 165.832H775.59V163.4H797.098V165.832H787.75V190H784.938V165.832ZM801.59 163.4H804.402V190H801.59V163.4ZM824.609 190.228C821.974 190.228 819.593 189.645 817.465 188.48C815.362 187.315 813.703 185.706 812.487 183.654C811.296 181.577 810.701 179.259 810.701 176.7C810.701 174.141 811.296 171.836 812.487 169.784C813.703 167.707 815.375 166.085 817.503 164.92C819.631 163.755 822.012 163.172 824.647 163.172C826.623 163.172 828.447 163.501 830.119 164.16C831.791 164.819 833.209 165.781 834.375 167.048L832.589 168.834C830.511 166.731 827.889 165.68 824.723 165.68C822.62 165.68 820.707 166.161 818.985 167.124C817.262 168.087 815.907 169.404 814.919 171.076C813.956 172.748 813.475 174.623 813.475 176.7C813.475 178.777 813.956 180.652 814.919 182.324C815.907 183.996 817.262 185.313 818.985 186.276C820.707 187.239 822.62 187.72 824.723 187.72C827.915 187.72 830.537 186.656 832.589 184.528L834.375 186.314C833.209 187.581 831.778 188.556 830.081 189.24C828.409 189.899 826.585 190.228 824.609 190.228ZM823.241 198.36C821.999 198.36 820.935 198.069 820.049 197.486L820.695 196.042C821.429 196.523 822.265 196.764 823.203 196.764C823.963 196.764 824.545 196.612 824.951 196.308C825.356 196.004 825.559 195.561 825.559 194.978C825.559 194.446 825.356 194.015 824.951 193.686C824.571 193.382 823.988 193.23 823.203 193.23H822.329L823.241 189.772H824.875L824.305 191.976C825.343 192.077 826.141 192.394 826.699 192.926C827.256 193.483 827.535 194.193 827.535 195.054C827.535 196.067 827.142 196.865 826.357 197.448C825.571 198.056 824.533 198.36 823.241 198.36ZM856.383 182.894H841.563L838.371 190H835.445L847.605 163.4H850.379L862.539 190H859.575L856.383 182.894ZM855.357 180.614L848.973 166.326L842.589 180.614H855.357ZM852.773 161.234L849.011 158.08L845.249 161.234H842.741L847.643 156.522H850.379L855.281 161.234H852.773ZM878.196 190.228C875.562 190.228 873.168 189.645 871.014 188.48C868.886 187.289 867.214 185.668 865.998 183.616C864.808 181.564 864.212 179.259 864.212 176.7C864.212 174.141 864.808 171.836 865.998 169.784C867.214 167.732 868.886 166.123 871.014 164.958C873.168 163.767 875.562 163.172 878.196 163.172C880.831 163.172 883.2 163.755 885.302 164.92C887.43 166.085 889.102 167.707 890.318 169.784C891.534 171.836 892.142 174.141 892.142 176.7C892.142 179.259 891.534 181.577 890.318 183.654C889.102 185.706 887.43 187.315 885.302 188.48C883.2 189.645 880.831 190.228 878.196 190.228ZM878.196 187.72C880.299 187.72 882.199 187.251 883.896 186.314C885.594 185.351 886.924 184.034 887.886 182.362C888.849 180.665 889.33 178.777 889.33 176.7C889.33 174.623 888.849 172.748 887.886 171.076C886.924 169.379 885.594 168.061 883.896 167.124C882.199 166.161 880.299 165.68 878.196 165.68C876.094 165.68 874.181 166.161 872.458 167.124C870.761 168.061 869.418 169.379 868.43 171.076C867.468 172.748 866.986 174.623 866.986 176.7C866.986 178.777 867.468 180.665 868.43 182.362C869.418 184.034 870.761 185.351 872.458 186.314C874.181 187.251 876.094 187.72 878.196 187.72Z" fill="white"/>
<rect x="96" y="28" width="706" height="111" fill="#E9E41D"/>
<path d="M182.66 134H138.56C126.893 134 118.213 131.667 112.52 127C106.92 122.333 104.12 115.147 104.12 105.44V61.76C104.12 52.0533 106.92 44.8667 112.52 40.2C118.213 35.5333 126.893 33.2 138.56 33.2H173.56C175.333 33.2 176.593 33.62 177.34 34.46C178.18 35.2067 178.6 36.4667 178.6 38.24V55.18C178.6 56.9533 178.18 58.26 177.34 59.1C176.593 59.8467 175.333 60.22 173.56 60.22H144.44C141.547 60.22 139.4 60.8267 138 62.04C136.6 63.16 135.9 64.8867 135.9 67.22V100.68C135.9 103.013 136.413 104.74 137.44 105.86C138.56 106.98 140.193 107.54 142.34 107.54H155.92V85.7C155.92 83.9267 156.293 82.6667 157.04 81.92C157.88 81.08 159.187 80.66 160.96 80.66H182.66C184.433 80.66 185.693 81.08 186.44 81.92C187.28 82.6667 187.7 83.9267 187.7 85.7V128.96C187.7 130.733 187.28 132.04 186.44 132.88C185.693 133.627 184.433 134 182.66 134ZM241.321 62.6L234.741 83.88H256.721L250.141 62.6C249.768 61.76 249.348 61.1533 248.881 60.78C248.508 60.4067 248.041 60.22 247.481 60.22H243.981C243.421 60.22 242.908 60.4067 242.441 60.78C242.068 61.1533 241.694 61.76 241.321 62.6ZM233.341 128.96C233.341 130.733 232.921 132.04 232.081 132.88C231.334 133.627 230.074 134 228.301 134H207.721C205.948 134 204.641 133.627 203.801 132.88C203.054 132.04 202.681 130.733 202.681 128.96V92C202.681 89.2 203.101 85.98 203.941 82.34C204.874 78.7 206.274 74.4533 208.141 69.6L220.321 37.82C220.881 36.2333 221.721 35.0667 222.841 34.32C224.054 33.5733 225.594 33.2 227.461 33.2H265.121C266.894 33.2 268.341 33.5733 269.461 34.32C270.674 35.0667 271.561 36.2333 272.121 37.82L284.301 69.6C286.168 74.4533 287.521 78.7 288.361 82.34C289.294 85.98 289.761 89.2 289.761 92V128.96C289.761 130.733 289.341 132.04 288.501 132.88C287.754 133.627 286.494 134 284.721 134H263.581C261.714 134 260.314 133.627 259.381 132.88C258.541 132.04 258.121 130.733 258.121 128.96V109.36H233.341V128.96ZM332.947 134H312.087C310.313 134 309.007 133.627 308.167 132.88C307.42 132.04 307.047 130.733 307.047 128.96V38.24C307.047 36.4667 307.42 35.2067 308.167 34.46C309.007 33.62 310.313 33.2 312.087 33.2H334.627C336.12 33.2 337.333 33.5267 338.267 34.18C339.293 34.8333 340.227 35.9067 341.067 37.4L353.667 60.22C354.133 61.06 354.507 61.6667 354.787 62.04C355.16 62.4133 355.627 62.6 356.187 62.6H357.447C358.007 62.6 358.427 62.4133 358.707 62.04C359.08 61.6667 359.5 61.06 359.967 60.22L372.427 37.4C373.267 35.9067 374.153 34.8333 375.087 34.18C376.113 33.5267 377.373 33.2 378.867 33.2H401.547C403.32 33.2 404.58 33.62 405.327 34.46C406.167 35.2067 406.587 36.4667 406.587 38.24V128.96C406.587 130.733 406.167 132.04 405.327 132.88C404.58 133.627 403.32 134 401.547 134H379.987C378.213 134 376.907 133.627 376.067 132.88C375.32 132.04 374.947 130.733 374.947 128.96V79.68L366.687 94.94C365.847 96.5267 364.82 97.6933 363.607 98.44C362.487 99.0933 361.04 99.42 359.267 99.42H353.667C351.893 99.42 350.4 99.0933 349.187 98.44C348.067 97.6933 347.087 96.5267 346.247 94.94L337.987 79.68V128.96C337.987 130.733 337.567 132.04 336.727 132.88C335.98 133.627 334.72 134 332.947 134ZM495.855 134H430.895C429.122 134 427.815 133.627 426.975 132.88C426.229 132.04 425.855 130.733 425.855 128.96V38.24C425.855 36.4667 426.229 35.2067 426.975 34.46C427.815 33.62 429.122 33.2 430.895 33.2H495.855C497.629 33.2 498.889 33.62 499.635 34.46C500.475 35.2067 500.895 36.4667 500.895 38.24V54.62C500.895 56.3933 500.475 57.7 499.635 58.54C498.889 59.2867 497.629 59.66 495.855 59.66H457.215V70.44H484.515C486.289 70.44 487.549 70.86 488.295 71.7C489.135 72.4467 489.555 73.7067 489.555 75.48V90.46C489.555 92.2333 489.135 93.54 488.295 94.38C487.549 95.1267 486.289 95.5 484.515 95.5H457.215V107.54H495.855C497.629 107.54 498.889 107.96 499.635 108.8C500.475 109.547 500.895 110.807 500.895 112.58V128.96C500.895 130.733 500.475 132.04 499.635 132.88C498.889 133.627 497.629 134 495.855 134ZM551.702 134C549.929 134 548.622 133.627 547.782 132.88C547.036 132.04 546.662 130.733 546.662 128.96V112.3C546.662 110.527 547.036 109.267 547.782 108.52C548.622 107.68 549.929 107.26 551.702 107.26H565.562V60.22H551.702C549.929 60.22 548.622 59.8467 547.782 59.1C547.036 58.26 546.662 56.9533 546.662 55.18V38.24C546.662 36.4667 547.036 35.2067 547.782 34.46C548.622 33.62 549.929 33.2 551.702 33.2H611.342C613.116 33.2 614.376 33.62 615.122 34.46C615.962 35.2067 616.382 36.4667 616.382 38.24V55.18C616.382 56.9533 615.962 58.26 615.122 59.1C614.376 59.8467 613.116 60.22 611.342 60.22H597.762V107.26H611.342C613.116 107.26 614.376 107.68 615.122 108.52C615.962 109.267 616.382 110.527 616.382 112.3V128.96C616.382 130.733 615.962 132.04 615.122 132.88C614.376 133.627 613.116 134 611.342 134H551.702ZM704.928 134H635.488C633.714 134 632.408 133.627 631.568 132.88C630.821 132.04 630.448 130.733 630.448 128.96V110.2C630.448 108.427 630.728 106.887 631.288 105.58C631.848 104.18 632.734 102.827 633.948 101.52L667.968 60.22H638.008C636.234 60.22 634.928 59.8467 634.088 59.1C633.341 58.26 632.968 56.9533 632.968 55.18V38.24C632.968 36.4667 633.341 35.2067 634.088 34.46C634.928 33.62 636.234 33.2 638.008 33.2H702.408C704.181 33.2 705.441 33.62 706.188 34.46C707.028 35.2067 707.448 36.4667 707.448 38.24V59.1C707.448 60.9667 707.168 62.6 706.608 64C706.048 65.3067 705.161 66.6133 703.948 67.92L671.468 107.26H704.928C706.701 107.26 707.961 107.68 708.708 108.52C709.548 109.267 709.968 110.527 709.968 112.3V128.96C709.968 130.733 709.548 132.04 708.708 132.88C707.961 133.627 706.701 134 704.928 134ZM728.89 134C727.116 134 725.81 133.627 724.97 132.88C724.223 132.04 723.85 130.733 723.85 128.96V112.3C723.85 110.527 724.223 109.267 724.97 108.52C725.81 107.68 727.116 107.26 728.89 107.26H742.75V60.22H728.89C727.116 60.22 725.81 59.8467 724.97 59.1C724.223 58.26 723.85 56.9533 723.85 55.18V38.24C723.85 36.4667 724.223 35.2067 724.97 34.46C725.81 33.62 727.116 33.2 728.89 33.2H788.53C790.303 33.2 791.563 33.62 792.31 34.46C793.15 35.2067 793.57 36.4667 793.57 38.24V55.18C793.57 56.9533 793.15 58.26 792.31 59.1C791.563 59.8467 790.303 60.22 788.53 60.22H774.95V107.26H788.53C790.303 107.26 791.563 107.68 792.31 108.52C793.15 109.267 793.57 110.527 793.57 112.3V128.96C793.57 130.733 793.15 132.04 792.31 132.88C791.563 133.627 790.303 134 788.53 134H728.89Z" fill="black"/>
</svg>
